<svg xmlns="http://www.w3.org/2000/svg" version="1.1" viewBox="118 106 264 264" width="264" height="264"><g fill="#ffffff"><path d="M0 0 C2.6676032765167292 1.6712695226369902 5.183526175127383 3.4747414055935053 7.712890625 5.345947265625 C24.958037151656526 17.847690802919118 46.33426994113219 20.876475561922746 67 23 C67.9472998046875 23.09788818359374 68.894599609375 23.195776367187506 69.87060546875 23.296630859375 C80.19203552674585 24.22716995339249 90.520586046664 24.1985548921175 100.875 24.1875 C101.82954071044921 24.1872280883789 102.78408142089845 24.186956176757803 103.76754760742188 24.186676025390625 C117.93102630070143 24.168108860889674 131.94194466450892 23.87616903913508 146 22 C146.392197265625 21.95174072265624 146.392197265625 21.95174072265624 148.376953125 21.70751953125 C167.0856904425575 19.347614596205972 184.3494501936716 13.617440168444361 199.8125 2.625 C203.99489687809495 -0.23744777161360275 206.90967509007305 -1.0848387484987825 212 -1 C216.30567454209114 0.7222698168364587 217.9465264147717 2.9308799745344913 220 7 C220.87118444767611 9.941360196507574 221.41125910419044 12.917408586132524 221.9375 15.9375 C222.10298339843746 16.870620117187514 222.268466796875 17.803740234375 222.43896484375 18.76513671875 C226.46435789159767 42.83782181638759 228.32345891381794 67.44330183125913 229.795166015625 91.7861328125 C229.93296607003123 93.94823044802314 230.09005634168187 96.10917599120222 230.265380859375 98.2685546875 C231.3547951834894 112.65543216670582 231.1983502445505 127.08067862159263 231.1875 141.5 C231.18738040924075 142.20055259704588 231.18726081848143 142.9011051940918 231.18713760375977 143.62288665771484 C231.17991159544306 177.01361417954138 231.17991159544306 177.01361417954138 230.1875 193.125 C230.15249389648437 193.71120117187502 230.15249389648437 193.71120117187502 229.975341796875 196.677734375 C228.8049709873141 212.29512511793382 224.9726799406269 227.13249051543096 213 238 C199.2990260154669 248.57923307666476 185.01882904238647 250.18721643760483 168.27392578125 250.185302734375 C166.13684110753576 250.1874878925281 164.00027495204733 250.20569140362068 161.86328125 250.224609375 C148.73179049069063 250.27939351350233 136.61253393883305 249.14200423633918 126.609375 239.78125 C120.4685874653286 232.98465020434423 119.6601178546407 226.750848917368 119.875 217.875 C119.91890869140627 217.02792480468747 119.96281738281249 216.180849609375 120.008056640625 215.30810546875 C120.28688605386662 208.91187100928812 119.86834301983856 203.13454654836187 115.31640625 198.16015625 C114.7376171875 197.79792968749996 114.15882812500001 197.43570312500003 113.5625 197.0625 C112.98628906249996 196.68222656249998 112.41007812500004 196.301953125 111.81640625 195.91015625 C105.96260922675032 192.9769633329738 98.88660228986063 193.14920002031 92.75 195.125 C88.03067054042975 197.09374222964107 85.28214313429709 200.43571373140583 83 205 C82.88263275716815 206.6574943596828 82.82117838604498 208.31913458977397 82.7890625 209.98046875 C82.76070312500002 210.98013671875003 82.73234374999998 211.9798046875 82.703125 213.009765625 C82.65152595958659 215.1085565938156 82.6071158007864 217.2075380765749 82.5703125 219.306640625 C82.27758852888087 228.82626810243676 80.05084833389066 235.3611113440445 73 242 C57.83136337007892 253.47487681185646 33.9933820378879 251.5210265523075 15.79296875 249.5390625 C2.566172770315177 247.61801335989628 -8.897229092219987 241.02621232229433 -17.0078125 230.359375 C-32.71749280429992 206.82771998351728 -28.209884786139824 171.46939208528437 -28.1875 144.375 C-28.187233123779293 143.6515942382813 -28.186966247558587 142.9281884765625 -28.186691284179688 142.182861328125 C-28.177084243727563 121.43624238876097 -28.09370221062288 100.76663734335253 -26.1900634765625 80.0888671875 C-25.978197606394815 77.76038371267055 -25.777236506961557 75.43108700516456 -25.5771484375 73.1015625 C-24.11434305445279 56.188905837739384 -22.576756708986395 39.276112751960255 -19.9375 22.5 C-19.78748535156251 21.540937499999984 -19.63747070312499 20.581874999999997 -19.48291015625 19.59375 C-16.837591929832115 3.988357161624748 -16.837591929832115 3.988357161624748 -12 0 C-7.710233007102772 -1.4299223309657378 -4.264630457649957 -1.3083960304222728 0 0 Z M116.2109375 65.7734375 C109.173600696157 69.67754307669031 101.85689013347704 70.05890185955298 94 69 C87.17352929375548 66.48001560099272 81.18380664074917 62.760259090987915 75.0625 58.875 C61.308784148787254 50.353179381225345 43.731568917990614 47.7434946080657 27.90625 50.6484375 C13.38237092994001 54.15937520908474 1.6463910647347575 61.33625456075734 -6.375 74.0625 C-8.604720949776237 77.98268873506856 -10.043748053982966 81.60124104832164 -11 86 C-10.340000000000003 86 -9.680000000000007 86 -9 86 C-7.805206338595383 84.53869847928459 -6.669840796136384 83.02863677470805 -5.5625 81.5 C2.7323438213941245 70.9375010331888 15.937547393529002 62.60664302792884 29.31640625 60.25 C51.4635253558327 58.18680404254252 68.46640009069097 64.28654441954455 86.9921875 76.265625 C93.92335650956608 80.2622990782433 101.37708492859238 81.4987734269047 109.18359375 79.41796875 C114.88635988201014 77.05708825300525 120.08120734816339 73.57204953528327 125.33740234375 70.365234375 C137.53190864162514 62.9768522623462 148.17546762084106 59.6404305862074 162.4375 59.6875 C163.41009765625 59.67138671875 164.3826953125 59.6552734375 165.384765625 59.638671875 C180.20159787222372 59.628774191468125 194.1339461908916 66.00822638242909 205 76 C206.93945774052304 78.08064431933508 208.7909373708402 80.19552141393672 210.58984375 82.3984375 C212 84 212 84 214 85 C211.43995291045303 72.46643612409281 203.45798339417553 63.97198892945036 193 57 C166.5706294007693 41.89750251472532 139.95107930966424 50.43233503093899 116.2109375 65.7734375 Z M11.875 93.74609375 C-2.285620150176129 110.76833922219089 -5.838481856389109 130.60380915526667 -4.8125 152.125 C-3.065349135829365 170.74707140591613 4.169432376767077 188 18 199 C25.785701684736807 205.08881798421726 35.89318319254377 208.7786589281721 45.8828125 208.28125 C59.774234275399635 206.43589507780666 69.95732635603997 200.68985211442117 79 190 C92.22354476542452 172.12469442776603 95.63010524922598 149.73386131605412 92.49609375 127.97265625 C89.28548226548548 111.36920828722492 81.74803168771857 96.21341068579392 68 86 C49.017208642838 74.25421835842775 27.18379305631251 77.48050112766794 11.875 93.74609375 Z M124.75 94.25 C110.18648039967229 111.49085350665058 107.24311122389508 133.22392847355525 109 155 C109.77380895939507 160.51518774779117 111.2350589304607 165.71739091643082 113 171 C113.3003515625 171.93972656250003 113.600703125 172.879453125 113.91015625 173.84765625 C118.66702336159858 187.17100266213964 128.71013343762945 198.51529689552126 141.3046875 204.84765625 C152.87790003240116 209.79562392689616 163.54041936526488 208.44300912808376 175.125 204.2265625 C187.9191018936986 198.6033483612373 196.64375275508814 186.3233076376536 201.9375 173.8203125 C210.0566459061522 152.268756087346 208.34824094234932 128.47901578820165 199.53515625 107.515625 C192.92807336034758 94.01068295660286 183.17082124594094 87 169 80 C152.47381376562396 74.6582024292926 136.02621503218342 82.28908120874661 124.75 94.25 Z " transform="translate(149,113)"/>
<path d="M0 0 C4.988621389317018 4.9886213893169895 6.668348746077584 9.418166457637994 7.3125 16.375 C6.796694845591276 22.358339791141134 5.483814351833189 27.20380367935985 1.625 31.875 C-4.665358429151411 36.96719491883687 -9.849731281056279 38.83944715270019 -18 38 C-24.730429268980288 35.83257362524364 -29.1880645533123 31.90849994236595 -33 26 C-34.92112107993262 19.833604365810714 -35.11401785645165 12.623879348283822 -32.4375 6.6875 C-29.337518745627165 1.3716870743677418 -25.253782314613545 -2.040055680812742 -19.625 -4.4375 C-11.998546427502504 -5.620915209525464 -6.286458510979969 -4.4730570174280615 0 0 Z M-15.75 4.1875 C-17.42003940025154 6.609057130364704 -17.369624126041685 8.116931816874711 -17 11 C-15 13 -15 13 -12 13.25 C-9 13 -9 13 -7 11 C-7.454545454545439 5.545454545454561 -7.454545454545439 5.545454545454561 -10 3 C-14 3 -14 3 -15.75 4.1875 Z " transform="translate(309,231)"/>
<path d="M0 0 C4.504897249158006 3.3531297050433864 7.203503675391261 7.712042967117554 8.58984375 13.125 C9.40203961359407 19.285592029176428 9.07279122455131 24.966104487139518 5.89453125 30.41015625 C0.7614122608183322 36.32341887410138 -4.211484722367942 39.10110989860061 -12.04296875 39.72265625 C-18.324505947721008 39.542841253882045 -23.700618376266192 36.81500662373378 -28.10546875 32.41015625 C-32.634687750342636 26.297190736465666 -33.07258275740642 19.80807989428422 -32.10546875 12.41015625 C-30.352455409861335 6.207185969509339 -26.47438119555946 1.8648361991469073 -21.10546875 -1.58984375 C-13.816577567814164 -4.637925517095908 -6.809306281258358 -3.747133042349276 0 0 Z M-8.10546875 4.41015625 C-9.66796875 6.09765625 -9.66796875 6.09765625 -11.10546875 8.41015625 C-10.695212339743591 12.820412660256409 -10.695212339743591 12.820412660256409 -9.10546875 14.41015625 C-6.16796875 14.59765625 -6.16796875 14.59765625 -3.10546875 14.41015625 C-2.4454687500000034 13.750156250000003 -1.7854687500000068 13.090156250000007 -1.10546875 12.41015625 C-1.48046875 8.78515625 -1.48046875 8.78515625 -2.10546875 5.41015625 C-3.095468750000009 5.245156250000008 -3.095468750000009 5.245156250000008 -8.10546875 4.41015625 Z " transform="translate(216.10546875,229.58984375)"/>
<path d="M0 0 C3.82919063683795 3.3650463172212426 6.29053990976638 5.765665786919669 6.6875 11 C6.411893873612712 16.91568864138395 3.430579477976835 21.118769102773683 0.0625 25.8125 C-0.4286328124999841 26.545976562500016 -0.919765625000025 27.279453124999975 -1.42578125 28.03515625 C-4.150546009566966 31.729379091137957 -4.150546009566966 31.729379091137957 -5.9375 32.8125 C-9.328125 32.87890625 -9.328125 32.87890625 -12.9375 31.8125 C-14.91940580852065 29.6896719932941 -16.26431882844389 27.98302155223223 -17.75 25.5625 C-18.130917968749998 24.988867187499977 -18.511835937499995 24.41523437500001 -18.904296875 23.82421875 C-21.83397711585451 19.319386435691342 -24.04073410363239 15.73953660113773 -23.75 10.3125 C-22.636944899729713 5.517801106527941 -21.458451536631202 2.915189864057595 -17.4375 0 C-11.683809656628483 -1.9521449379296314 -5.6928355453605946 -2.301359050252188 0 0 Z " transform="translate(258.9375,312.1875)"/></g></svg>
