<svg version="1.1" id="Layer_1" xmlns="http://www.w3.org/2000/svg" x="0px" y="0px" width="100%" viewBox="0 0 512 512" enable-background="new 0 0 512 512" xml:space="preserve">
<path fill="#020403" opacity="1.000000" stroke="none" 
	d="
M367.702209,179.162781 
	C377.149506,194.154755 383.397186,210.337158 385.997314,227.909775 
	C386.231079,229.489365 387.069641,231.024124 387.827698,232.475021 
	C416.194427,286.767578 415.179840,341.075958 386.539948,394.653625 
	C361.267120,441.932404 322.735504,474.015594 270.476379,487.177185 
	C218.176865,500.348969 170.966995,489.371796 131.378098,451.542358 
	C123.649605,444.157318 117.426765,435.196625 110.509445,426.962708 
	C110.778084,426.583344 111.046715,426.203979 111.315353,425.824646 
	C112.863632,425.951477 114.462242,425.873322 115.951866,426.239075 
	C124.353035,428.301666 132.743683,430.412628 141.097549,432.657349 
	C142.608109,433.063232 144.178329,433.909058 145.304581,434.986938 
	C180.829254,468.985077 222.792892,477.899048 269.212433,464.821930 
	C336.553741,445.850830 384.517853,383.036163 386.264160,313.123260 
	C386.489655,304.097260 385.411499,295.038727 384.937195,285.995270 
	C384.420441,285.950867 383.903656,285.906464 383.386902,285.862030 
	C382.927917,286.785950 382.341309,287.668701 382.028290,288.639679 
	C368.504974,330.590454 340.351196,358.703705 299.965057,375.090454 
	C294.491608,377.311340 289.694702,380.056976 285.189484,383.965607 
	C232.207001,429.932129 160.826523,441.469269 98.209404,411.173706 
	C63.130264,394.201569 38.999485,367.302887 29.748260,328.713776 
	C24.715910,307.722565 25.916340,286.696991 32.073906,265.988831 
	C32.253227,265.385773 32.574574,264.824921 32.911957,264.057220 
	C38.286980,272.856506 43.626869,281.334381 48.615559,290.014099 
	C49.489601,291.534821 49.044678,293.910980 48.945835,295.878845 
	C47.538353,323.901611 55.635345,348.518402 75.328476,368.859344 
	C92.971611,387.082886 115.075081,397.077271 139.411530,402.560150 
	C177.509735,411.143494 213.135986,403.865204 246.886551,385.229736 
	C247.690674,384.785736 248.432968,384.229797 248.199265,384.382477 
	C235.499603,381.386963 222.290054,378.402802 209.163330,375.090363 
	C205.489136,374.163177 201.735992,372.769257 198.574371,370.728943 
	C186.607788,363.006592 173.042114,360.443268 159.580368,356.707031 
	C108.532326,342.538940 68.238274,313.487915 43.228859,265.994812 
	C9.685205,202.295120 34.958328,126.681328 99.719276,94.999802 
	C107.119102,91.379761 114.928177,88.596291 123.356667,85.088127 
	C117.829765,95.722572 112.992935,105.302284 107.825333,114.700104 
	C106.976723,116.243401 104.716164,117.055733 103.036835,118.090111 
	C66.023384,140.888535 47.975086,173.951447 51.332523,217.368896 
	C53.667175,247.560028 68.273712,272.324585 89.635651,293.361084 
	C105.270203,308.757477 123.259613,320.541138 143.376694,329.164673 
	C144.371399,329.591034 145.459274,329.800049 147.021286,330.263977 
	C143.580353,324.813812 140.331314,320.006134 137.425354,314.999359 
	C129.646011,301.596161 124.969955,287.087128 122.207825,271.878906 
	C121.627037,268.681152 120.508224,265.450012 118.995262,262.571747 
	C77.644035,183.905411 106.644516,84.566101 183.849243,40.669861 
	C239.640884,8.948439 311.776520,18.410326 357.681396,63.479027 
	C358.495087,64.277878 359.228851,65.158150 360.698425,66.763474 
	C358.235901,66.763474 356.563690,66.888481 354.916351,66.739182 
	C350.603363,66.348289 346.240417,65.138649 342.006348,65.507225 
	C329.862732,66.564339 319.805176,61.890762 309.168579,56.663723 
	C259.875000,32.439800 202.487595,43.582287 163.135254,84.797508 
	C129.765472,119.747009 117.436287,161.673752 123.814415,209.337799 
	C123.932571,210.220795 124.191666,211.084915 125.451546,212.126343 
	C125.962753,210.888763 126.552422,209.677277 126.973686,208.409821 
	C137.363937,177.148834 156.353653,152.754822 184.547470,135.479233 
	C189.441620,132.480392 193.696411,128.340775 197.947830,124.405380 
	C241.663071,83.939476 293.301697,67.195595 352.272003,73.685089 
	C388.635681,77.686806 420.913452,91.650856 446.632202,118.206268 
	C477.300446,149.872147 488.916870,188.318909 484.442657,231.852631 
	C483.753693,238.555939 482.313477,245.182037 481.148438,252.284134 
	C475.126160,242.220673 469.473419,232.872879 463.970093,223.437973 
	C463.371429,222.411621 463.500793,220.880661 463.517792,219.586731 
	C464.177307,169.380341 442.609406,131.678146 397.566681,109.806862 
	C348.401550,85.933891 298.797180,89.554672 250.300766,113.648758 
	C249.649673,113.972237 249.096542,114.492920 248.383560,115.003235 
	C258.426086,115.916161 268.182739,116.354103 277.795135,117.770706 
	C297.609802,120.690819 315.356079,128.835587 331.728302,140.236298 
	C334.530060,142.187302 337.747070,143.783020 341.003906,144.803421 
	C392.053558,160.797775 434.436768,188.823593 462.494019,235.221390 
	C489.426788,279.759766 494.374390,326.928436 471.792938,374.628357 
	C451.607727,417.266571 416.570831,442.936310 371.316864,454.862701 
	C362.551666,457.172729 353.459869,458.243469 344.518768,459.885895 
	C344.337921,459.432861 344.157074,458.979797 343.976227,458.526733 
	C347.837372,455.033875 352.199432,451.951477 355.463074,447.968933 
	C364.213104,437.291351 375.352295,431.109863 388.035645,425.665314 
	C426.500061,409.153931 452.143646,380.664246 460.817169,339.000946 
	C469.367279,297.930450 458.113342,261.543121 432.184082,229.244278 
	C415.233734,208.130096 394.400146,191.790024 370.412506,179.378799 
	C369.684082,179.001907 368.860779,178.808426 368.096405,178.777283 
	C367.965424,178.794006 367.819733,178.562881 367.674011,178.331757 
	C367.683411,178.608765 367.692810,178.885773 367.702209,179.162781 
M177.181900,164.666458 
	C146.658630,193.528046 134.416321,228.854111 141.396973,270.170959 
	C150.322784,323.000854 200.677612,367.046661 260.924072,364.141541 
	C314.956940,361.536011 362.077545,317.407959 368.372895,262.142273 
	C373.785339,214.627289 348.753754,168.896042 305.006378,146.375351 
	C264.734650,125.643898 212.318604,132.973984 177.181900,164.666458 
z"/>
<path fill="#020403" opacity="1.000000" stroke="none" 
	d="
M306.291077,440.235107 
	C298.466095,444.325500 291.007965,448.328430 283.407928,452.040680 
	C281.765411,452.842987 279.455963,453.197876 277.717560,452.745331 
	C258.126038,447.645660 239.723602,439.725525 222.589996,428.910187 
	C222.356964,428.763062 222.263443,428.394928 222.041611,428.024384 
	C229.984070,424.775391 237.885361,421.501862 245.837021,418.355682 
	C246.615372,418.047729 247.776398,418.333832 248.637115,418.664001 
	C258.706055,422.526520 268.578461,427.007233 278.852295,430.199829 
	C288.950562,433.337860 299.450073,435.184631 309.971741,437.644379 
	C308.937744,438.381683 307.772461,439.212616 306.291077,440.235107 
z"/>
<path fill="#020403" opacity="1.000000" stroke="none" 
	d="
M453.740784,289.333710 
	C457.796295,313.940125 458.659180,308.026215 443.982635,325.872833 
	C434.653564,337.216919 423.674988,346.899658 410.440552,355.952728 
	C411.319946,351.308136 412.580536,347.724243 412.573273,344.142944 
	C412.545471,330.473206 418.858032,320.382507 428.082550,310.676239 
	C435.782928,302.573761 441.252655,292.348755 447.683594,283.045319 
	C448.603149,281.714996 449.372375,280.280701 450.715149,278.061768 
	C451.855316,282.289398 452.749969,285.606720 453.740784,289.333710 
z"/>
<path fill="#020403" opacity="1.000000" stroke="none" 
	d="
M406.405609,149.550507 
	C407.722748,156.145157 408.929321,162.336761 410.288788,169.312973 
	C401.810364,164.318588 394.013062,159.769684 386.288361,155.100647 
	C385.581940,154.673691 385.138641,153.528107 384.913147,152.630783 
	C380.904480,136.678528 374.547150,121.723900 365.984772,107.692230 
	C365.825378,107.431046 365.857483,107.053040 365.696381,106.142509 
	C375.968353,108.358063 385.645081,111.446365 394.593628,116.571243 
	C395.612549,117.154762 396.424438,118.533157 396.813995,119.713982 
	C400.043427,129.502335 403.150787,139.330994 406.405609,149.550507 
z"/>
<path fill="#020403" opacity="1.000000" stroke="none" 
	d="
M333.322021,385.267151 
	C323.086151,385.930328 313.289612,386.571960 303.487366,387.108917 
	C300.576813,387.268341 297.650146,387.133514 294.730865,387.133514 
	C294.619324,386.692535 294.507782,386.251526 294.396240,385.810547 
	C296.001465,384.903778 297.582031,383.949646 299.215881,383.097778 
	C310.689453,377.115692 322.176849,371.160126 333.651428,365.180084 
	C335.111938,364.418884 336.433990,363.267548 337.972961,362.801270 
	C349.411194,359.335938 360.888062,355.997955 373.475677,352.289185 
	C369.605408,361.100739 365.892944,369.654297 362.036163,378.142273 
	C361.727173,378.822327 360.470062,379.253479 359.575409,379.457245 
	C350.979584,381.415497 342.366974,383.299988 333.322021,385.267151 
z"/>
<path fill="#020403" opacity="1.000000" stroke="none" 
	d="
M197.201202,83.842422 
	C207.364380,86.557167 217.110580,89.197884 227.611313,92.043037 
	C219.989059,97.554276 213.219070,102.534042 206.323334,107.333130 
	C205.411880,107.967445 203.755219,108.067635 202.619675,107.761772 
	C188.423248,103.937973 174.030228,101.701462 157.757294,102.288292 
	C160.805862,98.592522 163.029678,95.698845 165.457138,92.987480 
	C176.969727,80.128365 176.989914,80.143867 193.864441,83.123734 
	C194.845062,83.296898 195.811279,83.551628 197.201202,83.842422 
z"/>
<path fill="#020403" opacity="1.000000" stroke="none" 
	d="
M73.285492,235.326324 
	C70.882095,238.738159 68.693680,241.862030 66.505272,244.985916 
	C66.000954,245.082764 65.496635,245.179611 64.992310,245.276459 
	C63.036095,236.695724 61.037674,228.124039 59.195847,219.518814 
	C59.030888,218.748108 59.707603,217.623596 60.284676,216.893646 
	C69.507187,205.228043 80.270851,195.164169 92.498444,185.736435 
	C93.254921,194.481842 94.042023,202.644760 94.564636,210.824570 
	C94.628990,211.831848 93.402802,213.038345 92.568718,213.967682 
	C86.241524,221.017166 79.862999,228.020569 73.285492,235.326324 
z"/>
<path fill="#020403" opacity="1.000000" stroke="none" 
	d="
M116.584061,384.581604 
	C116.810730,385.782837 116.896957,386.572601 117.173729,389.107544 
	C108.384682,383.707520 100.650818,379.011719 93.003410,374.179138 
	C92.145378,373.636902 91.346497,372.362274 91.246895,371.355377 
	C89.942711,358.170898 88.769470,344.973480 87.563347,331.779297 
	C88.076775,331.598785 88.590195,331.418243 89.103615,331.237701 
	C95.852547,335.559387 102.661522,339.792938 109.281914,344.303284 
	C110.213089,344.937744 110.398659,346.897095 110.629532,348.292755 
	C112.606750,360.245392 114.514862,372.209473 116.584061,384.581604 
z"/>
<path fill="#020403" opacity="1.000000" stroke="none" 
	d="
M165.699432,370.364868 
	C164.714783,368.667236 163.921478,367.269745 162.800751,365.295441 
	C182.784012,368.205750 198.860138,376.469788 211.274246,393.025055 
	C203.209320,394.659973 195.782745,396.326385 188.282333,397.534302 
	C186.967194,397.746094 184.875824,396.388245 183.935883,395.152283 
	C177.798996,387.082489 171.880600,378.846588 165.699432,370.364868 
z"/>
<path fill="#020403" opacity="1.000000" stroke="none" 
	d="
M106.165604,252.816116 
	C108.910698,258.551514 111.915558,263.786713 113.980331,269.369568 
	C115.300690,272.939636 116.151535,277.164490 115.586945,280.846497 
	C114.537598,287.689789 112.299728,294.350830 110.279633,302.158539 
	C104.320366,296.586548 98.631401,291.350159 93.081635,285.970184 
	C92.410500,285.319611 92.009544,283.737366 92.296730,282.850281 
	C95.903419,271.709564 99.659950,260.617401 103.378128,249.512787 
	C103.819397,249.618637 104.260658,249.724503 104.701920,249.830353 
	C105.143654,250.707962 105.585381,251.585571 106.165604,252.816116 
z"/>
<path fill="#020403" opacity="1.000000" stroke="none" 
	d="
M403.738403,241.418991 
	C403.302032,242.672592 402.972260,243.568741 402.608856,244.556335 
	C396.628632,235.851181 387.096619,207.119812 387.446472,197.618683 
	C394.542664,203.356476 401.141266,208.564117 407.531525,214.016022 
	C408.357330,214.720612 408.515228,216.761826 408.284637,218.059906 
	C406.918976,225.747406 405.347351,233.398315 403.738403,241.418991 
z"/>
</svg>
